<?xml version="1.0" encoding="UTF-8" standalone="no"?>
<!-- Created with Inkscape (http://www.inkscape.org/) -->

<svg
   xmlns:dc="http://purl.org/dc/elements/1.1/"
   xmlns:cc="http://creativecommons.org/ns#"
   xmlns:rdf="http://www.w3.org/1999/02/22-rdf-syntax-ns#"
   xmlns:svg="http://www.w3.org/2000/svg"
   xmlns="http://www.w3.org/2000/svg"
   xmlns:sodipodi="http://sodipodi.sourceforge.net/DTD/sodipodi-0.dtd"
   xmlns:inkscape="http://www.inkscape.org/namespaces/inkscape"
   width="1080"
   height="450"
   viewBox="0 0 285.74999 119.0625"
   version="1.1"
   id="svg927"
   inkscape:version="0.92.3 (2405546, 2018-03-11)"
   sodipodi:docname="blog.svg">
  <defs
     id="defs921" />
  <sodipodi:namedview
     id="base"
     pagecolor="#ffffff"
     bordercolor="#666666"
     borderopacity="1.0"
     inkscape:pageopacity="0.0"
     inkscape:pageshadow="2"
     inkscape:zoom="0.98994949"
     inkscape:cx="585.17252"
     inkscape:cy="277.15729"
     inkscape:document-units="mm"
     inkscape:current-layer="layer1"
     showgrid="true"
     units="px"
     inkscape:window-width="1920"
     inkscape:window-height="1028"
     inkscape:window-x="0"
     inkscape:window-y="24"
     inkscape:window-maximized="1">
    <inkscape:grid
       type="xygrid"
       id="grid1472" />
  </sodipodi:namedview>
  <metadata
     id="metadata924">
    <rdf:RDF>
      <cc:Work
         rdf:about="">
        <dc:format>image/svg+xml</dc:format>
        <dc:type
           rdf:resource="http://purl.org/dc/dcmitype/StillImage" />
        <dc:title></dc:title>
      </cc:Work>
    </rdf:RDF>
  </metadata>
  <g
     inkscape:label="Layer 1"
     inkscape:groupmode="layer"
     id="layer1"
     transform="translate(0,-177.93748)">
    <path
       style="fill:#0005;"
       d="m 10.583333,188.52081 c 0,14.99306 0,29.98611 0,44.97917 13.229167,0 26.458333,0 39.6875,0 0,-14.99306 0,-29.98611 0,-44.97917 -13.229167,0 -26.458333,0 -39.6875,0 z m 47.625,0 c -2.306239,7.9182 6.736387,5.12164 11.300283,5.53197 24.455461,0 48.910924,0 73.366384,0 2.30623,-7.9182 -6.73639,-5.12163 -11.30029,-5.53197 -24.45546,0 -48.910918,0 -73.366377,0 z m 209.135557,0.11472 c -5.0519,11.95179 14.36604,8.60433 6.47594,-0.11146 -2.16168,-0.28775 -4.33013,0.58726 -6.47594,0.11146 z m 0,9.77822 c -5.0519,11.95179 14.36604,8.60432 6.47594,-0.11147 -2.16168,-0.28775 -4.33013,0.58726 -6.47594,0.11147 z m -209.135557,0.6904 c 0,4.40972 0,8.81944 0,13.22916 59.090277,0 118.180547,0 177.270827,0 0,-4.40972 0,-8.81944 0,-13.22916 -59.09028,0 -118.18055,0 -177.270827,0 z m 209.135557,8.69662 c -5.0519,11.9518 14.36604,8.60433 6.47594,-0.11147 -2.16168,-0.28775 -4.33013,0.58726 -6.47594,0.11147 z m -209.135041,9.82369 c -2.323181,7.26374 2.460891,8.93523 8.479148,7.9375 9.520839,0 19.041679,0 28.562518,0 2.32318,-7.26373 -2.460894,-8.93523 -8.479148,-7.9375 -9.520839,0 -19.041679,0 -28.562518,0 z m 42.332821,0 c -2.323183,7.26374 2.46088,8.93523 8.47914,7.9375 9.52084,0 19.04168,0 28.56252,0 2.32318,-7.26373 -2.4609,-8.93523 -8.47915,-7.9375 -9.52084,0 -19.04167,0 -28.56251,0 z m 42.33333,0 c -2.32318,7.26374 2.46089,8.93523 8.47915,7.9375 5.99306,0 11.98612,0 17.97918,0 2.32318,-7.26373 -2.4609,-8.93523 -8.47915,-7.9375 -5.99306,0 -11.98612,0 -17.97918,0 z m 31.74948,0 c -2.32318,7.26374 2.46089,8.93523 8.47915,7.9375 9.52084,0 19.04168,0 28.56252,0 2.32318,-7.26373 -2.4609,-8.93523 -8.47915,-7.9375 -9.52084,0 -19.04168,0 -28.56252,0 z M 58.208333,230.85415 c 0.843556,5.46083 9.633093,1.54737 14.121416,2.64583 67.612301,0 135.224611,0 202.836911,0 -0.84355,-5.46084 -9.6331,-1.54737 -14.12143,-2.64583 -67.6123,0 -135.2246,0 -202.836897,0 z M 10.58385,241.43748 c -2.2452616,7.78524 6.853997,4.80376 11.300282,5.29167 5.934628,0 11.869255,0 17.803883,0 2.245264,-7.78525 -6.853997,-4.80375 -11.300283,-5.29167 -5.934627,0 -11.869255,0 -17.803882,0 z m 39.686983,0 c -2.245262,7.78525 6.853998,4.80376 11.300283,5.29167 16.517961,0 33.035923,0 49.553884,0 2.24526,-7.78525 -6.854,-4.80375 -11.300289,-5.29167 -16.517959,0 -33.035919,0 -49.553878,0 z m 95.249997,0 c -2.24526,7.78525 6.854,4.80375 11.30029,5.29167 5.93463,0 11.86925,0 17.80388,0 2.24526,-7.78525 -6.854,-4.80375 -11.30029,-5.29167 -5.93463,0 -11.86925,0 -17.80388,0 z m 39.68699,0 c -2.24527,7.78524 6.854,4.80376 11.30028,5.29167 16.51796,0 33.03592,0 49.55388,0 2.24526,-7.78525 -6.85399,-4.80375 -11.30028,-5.29167 -16.51796,0 -33.03592,0 -49.55388,0 z m 68.79218,0 c -2.24526,7.78524 6.85399,4.80376 11.30028,5.29167 3.10705,-0.81738 9.12611,1.76647 10.10581,-1.53564 0.26912,-6.65771 -7.99245,-2.81725 -12.10537,-3.75603 -3.10024,0 -6.20048,0 -9.30072,0 z m -243.41615,7.9375 c -2.2452616,7.78524 6.853997,4.80376 11.300282,5.29167 16.517961,0 33.035922,0 49.553883,0 2.245264,-7.78525 -6.853998,-4.80375 -11.300284,-5.29167 -16.51796,0 -33.035921,0 -49.553881,0 z m 68.791665,0 c -2.245261,7.78525 6.853999,4.80376 11.300284,5.29167 3.107043,-0.81738 9.126113,1.76647 10.105801,-1.53564 0.26911,-6.65771 -7.992443,-2.81725 -12.10536,-3.75603 -3.100242,0 -6.200483,0 -9.300725,0 z m 29.632815,0 c -2.24526,7.78525 6.854,4.80375 11.30029,5.29167 3.10704,-0.81738 9.12611,1.76647 10.1058,-1.53564 0.26911,-6.65771 -7.99245,-2.81725 -12.10537,-3.75603 -3.10024,0 -6.20048,0 -9.30072,0 z m 36.5125,0 c -2.24526,7.78525 6.854,4.80375 11.30029,5.29167 16.51796,0 33.03592,0 49.55388,0 2.24526,-7.78525 -6.854,-4.80375 -11.30029,-5.29167 -16.51796,0 -33.03592,0 -49.55388,0 z m 68.79167,0 c -2.24526,7.78524 6.85399,4.80376 11.30028,5.29167 3.10704,-0.81738 9.12611,1.76647 10.10581,-1.53564 0.26911,-6.65771 -7.99245,-2.81725 -12.10537,-3.75603 -3.10024,0 -6.20048,0 -9.30072,0 z m 29.63281,0 c -2.24525,7.78525 6.854,4.80376 11.30029,5.29167 3.10704,-0.81738 9.12611,1.76647 10.1058,-1.53564 0.26911,-6.65771 -7.99246,-2.81725 -12.10538,-3.75603 -3.10023,0 -6.20047,0 -9.30071,0 z m -233.36146,8.46667 c -2.2452591,7.78524 6.854,4.80374 11.300282,5.29166 10.34435,0 20.6887,0 31.03305,0 2.24526,-7.78525 -6.854,-4.80374 -11.300284,-5.29166 -10.344349,0 -20.688699,0 -31.033048,0 z m 50.270316,0 c -2.245258,7.78524 6.854002,4.80374 11.300284,5.29166 15.636017,0 31.27203,0 46.90805,0 2.24526,-7.78525 -6.854,-4.80374 -11.30029,-5.29166 -15.636014,0 -31.272029,0 -46.908044,0 z m 84.666664,0 c -2.24526,7.78524 6.85401,4.80374 11.30029,5.29166 10.34435,0 20.68869,0 31.03304,0 2.24527,-7.78525 -6.854,-4.80374 -11.30028,-5.29166 -10.34435,0 -20.6887,0 -31.03305,0 z m 50.27032,0 c -2.24526,7.78524 6.854,4.80374 11.30028,5.29166 15.63602,0 31.27203,0 46.90805,0 2.24526,-7.78525 -6.854,-4.80374 -11.30028,-5.29166 -15.63602,0 -31.27203,0 -46.90805,0 z m -185.2073,7.40833 c -2.2452616,7.78524 6.853997,4.80376 11.300282,5.29167 15.636017,0 31.272033,0 46.90805,0 2.245263,-7.78525 -6.853998,-4.80375 -11.300284,-5.29167 -15.636016,0 -31.272032,0 -46.908048,0 z m 66.145832,0 c -2.245262,7.78525 6.853998,4.80376 11.300283,5.29167 3.107044,-0.81738 9.126114,1.76647 10.105808,-1.53564 0.269108,-6.65771 -7.992449,-2.81725 -12.105367,-3.75603 -3.100241,0 -6.200483,0 -9.300724,0 z m 29.633328,0 c -2.24525,7.78525 6.854,4.80376 11.30029,5.29167 3.10704,-0.81738 9.12611,1.76647 10.1058,-1.53564 0.26911,-6.65771 -7.99244,-2.81725 -12.10536,-3.75603 -3.10024,0 -6.20049,0 -9.30073,0 z m 39.15782,0 c -2.24526,7.78525 6.854,4.80375 11.30029,5.29167 15.63601,0 31.27203,0 46.90804,0 2.24527,-7.78525 -6.85399,-4.80375 -11.30028,-5.29167 -15.63602,0 -31.27203,0 -46.90805,0 z m 66.14583,0 c -2.24525,7.78525 6.854,4.80376 11.30029,5.29167 3.10704,-0.81738 9.12611,1.76647 10.1058,-1.53564 0.26911,-6.65771 -7.99244,-2.81725 -12.10536,-3.75603 -3.10024,0 -6.20049,0 -9.30073,0 z m 29.63282,0 c -2.24526,7.78525 6.854,4.80375 11.30029,5.29167 3.10704,-0.81738 9.12611,1.76647 10.1058,-1.53564 0.26911,-6.65771 -7.99245,-2.81725 -12.10537,-3.75603 -3.10024,0 -6.20048,0 -9.30072,0 z m -230.71563,7.9375 c -2.2452616,7.78524 6.853997,4.80376 11.300282,5.29167 3.107044,-0.81738 9.126114,1.76647 10.105809,-1.53564 0.269107,-6.65771 -7.992449,-2.81725 -12.105367,-3.75603 -3.100241,0 -6.200483,0 -9.300724,0 z m 28.574999,0 c -2.245262,7.78525 6.853998,4.80376 11.300283,5.29167 16.517959,0 33.035919,0 49.553878,0 2.24527,-7.78525 -6.853994,-4.80375 -11.300279,-5.29167 -16.517961,0 -33.035921,0 -49.553882,0 z m 68.792181,0 c -2.24526,7.78525 6.854,4.80375 11.30029,5.29167 4.34695,0 8.69391,0 13.04086,0 2.24526,-7.78525 -6.85399,-4.80375 -11.30028,-5.29167 -4.34696,0 -8.69391,0 -13.04087,0 z m 37.5698,0 c -2.24526,7.78525 6.854,4.80375 11.30029,5.29167 3.10704,-0.81738 9.12611,1.76647 10.1058,-1.53564 0.26911,-6.65771 -7.99245,-2.81725 -12.10537,-3.75603 -3.10024,0 -6.20048,0 -9.30072,0 z m 28.57449,0 c -2.24527,7.78524 6.854,4.80376 11.30028,5.29167 16.51796,0 33.03592,0 49.55388,0 2.24526,-7.78525 -6.85399,-4.80375 -11.30028,-5.29167 -16.51796,0 -33.03592,0 -49.55388,0 z m 68.79218,0 c -2.24526,7.78524 6.85399,4.80376 11.30028,5.29167 4.34713,0 8.69425,0 13.04138,0 2.24529,-7.78525 -6.85399,-4.80375 -11.30028,-5.29167 -4.34713,0 -8.69425,0 -13.04138,0 z m -232.30365,7.9375 c -2.2452616,7.78524 6.853997,4.80376 11.300282,5.29167 12.990183,0 25.980367,0 38.97055,0 2.245264,-7.78525 -6.853998,-4.80375 -11.300284,-5.29167 -12.990183,0 -25.980365,0 -38.970548,0 z m 134.93698,0 c -2.24526,7.78525 6.854,4.80375 11.30029,5.29167 12.99018,0 25.98036,0 38.97054,0 2.24527,-7.78525 -6.85399,-4.80375 -11.30028,-5.29167 -12.99018,0 -25.98037,0 -38.97055,0 z m -76.729164,5.1e-4 c -2.245264,7.78525 6.853997,4.80375 11.300283,5.29167 16.51796,0 33.035921,0 49.553881,0 2.24526,-7.78524 -6.85399,-4.80376 -11.30028,-5.29167 -16.51796,0 -33.035922,0 -49.553884,0 z m 134.936464,0 c -2.24526,7.78525 6.85399,4.80375 11.30028,5.29167 16.51796,0 33.03593,0 49.55389,0 2.24525,-7.78524 -6.854,-4.80376 -11.30029,-5.29167 -16.51796,0 -33.03592,0 -49.55388,0 z"
       id="rect1480"
       inkscape:connector-curvature="0" />
  </g>
</svg>
