<?xml version="1.0" encoding="UTF-8" standalone="no"?>
<!-- Created with Inkscape (http://www.inkscape.org/) -->

<svg
   xmlns:dc="http://purl.org/dc/elements/1.1/"
   xmlns:cc="http://creativecommons.org/ns#"
   xmlns:rdf="http://www.w3.org/1999/02/22-rdf-syntax-ns#"
   xmlns:svg="http://www.w3.org/2000/svg"
   xmlns="http://www.w3.org/2000/svg"
   xmlns:sodipodi="http://sodipodi.sourceforge.net/DTD/sodipodi-0.dtd"
   xmlns:inkscape="http://www.inkscape.org/namespaces/inkscape"
   width="170mm"
   height="255mm"
   viewBox="0 0 170 255"
   version="1.1"
   id="svg876"
   inkscape:version="0.92.3 (2405546, 2018-03-11)"
   sodipodi:docname="selfi.svg">
  <defs
     id="defs870" />
  <sodipodi:namedview
     id="base"
     pagecolor="#ffffff"
     bordercolor="#666666"
     borderopacity="1.0"
     inkscape:pageopacity="0.0"
     inkscape:pageshadow="2"
     inkscape:zoom="0.49497475"
     inkscape:cx="421.09637"
     inkscape:cy="543.53917"
     inkscape:document-units="mm"
     inkscape:current-layer="layer1"
     showgrid="false"
     inkscape:window-width="1920"
     inkscape:window-height="1028"
     inkscape:window-x="0"
     inkscape:window-y="24"
     inkscape:window-maximized="1" />
  <metadata
     id="metadata873">
    <rdf:RDF>
      <cc:Work
         rdf:about="">
        <dc:format>image/svg+xml</dc:format>
        <dc:type
           rdf:resource="http://purl.org/dc/dcmitype/StillImage" />
        <dc:title />
      </cc:Work>
    </rdf:RDF>
  </metadata>
  <g
     inkscape:label="Layer 1"
     inkscape:groupmode="layer"
     id="layer1"
     transform="translate(0,-42)">
    <path
       style="fill:#efefdd;fill-opacity:1;stroke:none"
       d="m -0.21433761,40.460621 c 56.83931961,0 113.67862761,0 170.51793761,0 0,85.704589 0,171.409089 0,257.113539 -56.83931,0 -113.678618,0 -170.51793761,0 0,-85.70445 0,-171.40895 0,-257.113539 z"
       id="rect4050"
       inkscape:connector-curvature="0"
       inkscape:export-xdpi="88.910217"
       inkscape:export-ydpi="88.910217" />
    <path
       style="fill:#2b2b2b;fill-opacity:1;stroke:none"
       d="m 71.718162,49.681332 c 5.788099,2.806835 -1.35595,3.170533 -3.87522,0.935344 5.655239,1.730502 1.840921,6.431659 -1.921639,2.785526 -4.7771,-3.123673 -5.942611,-2.918456 -2.13482,1.87076 -0.46736,-1.509799 -16.844251,-1.615555 -4.582782,1.587646 5.807821,3.286029 -17.381029,-0.214025 -14.595628,6.034488 4.114688,0.758504 -3.733642,4.830582 -4.717781,7.001385 -2.40343,2.853449 -6.79509,4.894104 -5.516461,9.252786 0.114501,12.373071 0.228991,24.746163 0.34349,37.119303 5.33908,-4.0327 4.49989,-2.44645 0,0 0.163361,2.50244 -11.60935,-3.22684 -7.8724,5.54861 3.660111,9.76275 1.05206,23.50768 10.61003,30.30011 2.809902,-0.77604 -2.21175,2.92783 0.219551,7.29362 1.719189,9.50865 5.668561,18.50522 10.060131,27.0967 2.65847,6.20778 6.679779,12.10349 8.837887,18.32952 -1.272489,4.94432 -1.192448,10.46487 -3.299478,15.05364 -3.797649,6.10892 -1.88694,1.27893 -0.430631,-2.68028 -1.692701,1.27746 -5.6452,-0.9168 -7.59741,1.72391 -3.039901,2.47006 -6.35481,4.86067 -6.45968,9.1643 -1.76236,11.97769 -3.524729,23.95537 -5.287089,35.93305 0.92887,-11.99497 1.38253,-24.05606 4.42442,-35.75704 -6.149821,-1.05116 -13.389931,10.54986 -14.329731,14.17311 -3.47408,-4.66139 9.68718,-14.5217 -0.19861,-9.70468 -2.11265,8.23624 -11.88751,7.84463 -12.13864,6.66808 -0.64476,4.73332 1.76051,6.21099 6.20632,5.51058 3.5636,1.7818 7.12721,3.56361 10.690811,5.34541 l 0.935849,23.78719 c 1.546831,-2.53605 4.35619,-9.9766 3.414649,-2.84619 -0.64884,7.15376 0.823921,2.16769 2.125311,-1.83775 -0.66099,-5.11488 7.242151,-3.32704 6.63058,-7.45285 -0.493231,-7.35784 -0.98647,-14.71568 -1.479701,-22.07352 1.855822,9.92769 4.517872,19.74705 4.477462,29.90302 0.414441,4.69841 0.83439,8.89907 1.379411,1.81888 0.469648,-5.78509 1.053438,-9.66386 3.711897,-1.29633 1.246331,5.8906 15.921752,18.10985 6.839601,6.05874 -2.142709,-3.82113 -11.188459,-18.39907 -7.622169,-17.7191 6.15397,9.56319 10.70034,21.52515 22.09297,26.01797 10.26672,8.51036 19.332051,-0.97809 25.775819,-8.86937 9.603139,-6.55726 22.084659,-4.7391 32.684029,-8.92408 1.67506,-6.75667 -0.69613,-18.38944 4.17198,-26.57225 3.17877,-6.3088 0.52415,-20.53374 5.18458,-22.64691 0.69266,10.10921 1.23283,20.76955 -0.87469,30.78188 -2.83275,5.26239 -2.69556,12.45707 0.53957,2.81596 3.27519,-10.08008 12.41626,-13.71839 22.04457,-13.50679 -10.34898,-2.70951 -11.48584,-20.00683 -1.87767,-20.74247 -3.16675,-1.78308 -6.79051,-4.72396 -8.88357,-1.70546 -3.59771,-1.84742 -9.94342,-12.47327 -10.57028,-3.89483 0.76536,5.01058 -3.37604,-8.3772 -7.81755,-8.15174 -5.25439,-1.40186 -8.02139,-14.05271 -16.32021,-7.63399 -3.41292,7.22228 -3.56602,15.81325 -6.50991,23.26238 -6.10429,9.60507 -11.672019,21.40829 -22.649827,26.13026 -5.76561,1.45455 -18.381602,1.9667 -20.063363,1.5872 10.526623,-2.81457 12.163653,-14.88799 16.248603,-23.41739 5.7433,-1.01639 12.361939,0.47277 16.947626,-3.85715 3.702081,-2.50614 8.162121,-4.36638 9.140351,-9.19374 2.79899,-6.41266 6.35433,-12.57916 7.29566,-19.58917 3.13494,-8.25881 7.85083,-16.18513 9.46625,-24.85324 l -0.90672,-23.67539 c 5.17969,-3.35071 3.18467,-12.24807 5.9906,-17.94332 1.13866,-4.72408 2.80217,-10.70619 -0.23023,-14.70512 -6.08846,1.85646 -4.67505,-12.109745 -3.87106,-16.476936 1.28393,-10.48707 1.26741,-23.965628 -11.60124,-26.583068 -3.41794,-6.780353 -11.8419,-8.271071 -17.147257,-9.181124 -2.90889,-6.194355 -11.968501,-5.522773 -18.250651,-6.049652 -2.174761,0.471696 -4.633061,-1.073986 -6.85591,-1.350428 z m 19.243281,22.049815 c 9.579077,4.488971 23.620997,10.510568 23.547877,22.780035 -3.36159,7.589468 6.28537,11.540168 6.96087,17.227308 2.47891,3.05251 6.99567,-4.80094 8.48949,-0.4385 1.97313,9.33039 -2.9989,18.22993 -4.95281,27.1751 3.19481,-5.56178 -1.2616,7.83965 -1.52497,-0.14044 0.14989,-7.71506 7.33307,-15.05357 4.2711,-22.92229 1.90988,0.62629 3.68682,0.59337 -0.88219,-1.08021 -3.73358,2.04971 3.95265,4.84491 0.14271,10.51683 -2.26754,8.36255 -3.48666,9.25654 -3.61481,1.25636 -0.77225,-7.04776 0.63184,8.50396 -0.94311,11.66075 -0.0744,-5.84992 0.1437,-11.7413 -1.99782,-17.29827 0.791,-2.89951 6.28065,-2.93218 2.36006,-7.71689 -12.79301,-0.31133 -25.820278,-1.93952 -38.341578,1.5732 -6.79059,-0.67288 -10.71862,2.54087 -8.228399,-6.19084 -0.276161,-6.90046 -3.188311,-9.535629 -0.736531,-2.13543 0.70998,11.11989 -8.273622,-1.06967 -14.917351,0.23934 -9.90863,3.96835 -8.95704,-11.517868 -7.59197,-17.910915 0.118149,-7.496405 15.12453,-14.277287 15.634001,-11.046804 -3.03344,3.030029 -4.85258,3.398104 0.27608,3.271811 -2.562519,4.044354 -13.551861,9.787398 -3.07372,5.879745 6.63345,-2.152422 12.164919,-19.270392 17.401521,-10.120783 -7.392392,3.481078 -1.03954,4.920639 1.591339,1.200682 -0.479819,-2.915751 7.106351,5.810853 2.610591,-1.887644 -3.540601,-5.698775 7.532608,4.029808 4.812178,-0.789792 -0.430858,-1.034116 -0.861708,-2.068234 -1.292558,-3.102353 z m 25.858847,40.959333 c -7.19649,-6.98564 -18.847428,-10.33268 -27.591778,-4.13507 -4.78694,4.83317 -3.798171,-4.83698 -2.861969,-7.43261 -3.119842,2.24793 -0.967142,7.34214 -1.35891,10.91216 2.011439,4.64574 8.100269,-3.18449 11.72869,-2.74303 7.197677,-1.96698 13.179897,3.20749 20.083967,3.39855 z m 7.41662,5.67927 c 2.46394,4.10734 -1.00767,14.22228 2.07118,3.7755 -0.59672,-0.62756 -0.68731,-6.68852 -2.07118,-3.7755 z M 51.479601,77.809333 c -5.847951,5.235593 -7.063341,12.354811 -4.9085,19.670141 0.59568,3.756216 2.256121,7.856256 -1.94391,10.063996 -6.809999,7.13645 -0.79049,0.44229 0.813412,-4.62145 -0.625121,-6.751871 -5.090872,-16.817516 1.462428,-22.226051 1.52553,-0.962211 3.051051,-1.924423 4.57657,-2.886636 z m 7.017141,32.072517 c 4.07061,-0.021 17.15978,5.42142 6.42501,2.89975 -4.14559,0.40378 -17.401641,-1.84628 -6.42501,-2.89975 z m -8.43462,3.17398 c -1.110102,0.78065 -10.723621,2.15247 -7.429489,9.34326 -2.230102,-0.37357 -3.062762,-11.59605 7.429489,-9.34326 z m 55.324258,0.64957 c 10.67374,-3.66367 18.30411,7.42616 10.29279,15.36799 -10.3151,3.48984 -12.81306,3.47387 -24.717227,3.26149 -6.24568,-2.98196 -8.29537,-17.96739 1.07437,-17.54529 -4.758021,2.54468 -6.771021,9.68021 -0.6222,2.80192 3.75951,-2.60253 4.655238,9.32424 11.410177,3.8508 3.64715,-4.25482 -3.592054,-8.20854 4.81901,-4.20494 6.93824,6.96401 -22.589778,10.65698 -15.284018,0.0709 -5.540331,3.04987 -4.011049,5.13846 -4.61857,6.14171 5.21852,10.72367 23.859968,6.25257 25.598438,-1.85504 -4.40946,5.63826 -15.563535,9.57142 -18.783589,4.11064 5.710249,1.01172 23.742659,-1.34745 16.851659,-9.3219 -1.46039,-1.80924 -3.81908,-2.46961 -6.02084,-2.67832 z m 1.12035,10.74463 c 4.06684,-0.48844 4.89642,-2.06097 0,0 z m -53.01228,-9.76742 c 9.137772,-1.04035 26.092341,0.31584 20.763072,13.70984 -0.787501,7.25704 -20.482801,6.36553 -7.369691,3.45614 6.306452,-3.06845 4.750022,-5.09017 -1.183878,-1.38063 -3.809342,6.64125 -20.928452,3.08471 -15.403881,-1.06624 6.632171,4.38483 22.939449,-2.41585 21.998771,-6.62311 -4.668372,2.25389 4.293299,-1.01887 -1.394592,-3.10144 6.863022,6.09639 -4.66888,-7.8431 -9.339509,-4.42712 -2.682571,-0.28167 -5.375399,-0.45981 -8.070292,-0.56744 z m 45.506266,1.1126 c -3.718384,0.74144 -6.355894,1.09249 0,0 z m -58.066724,0.20258 c 0.682159,4.8685 -7.700791,2.78459 -4.01623,0.1567 1.32856,0.35124 2.676099,-0.0962 4.01623,-0.1567 z m 61.169888,0.47594 c 2.59004,0.27404 -0.12485,3.83009 -1.08099,1.41677 -0.21188,-0.68782 0.36199,-1.43718 1.08099,-1.41677 z m -72.164569,0.0749 c 8.01711,1.12248 1.321321,3.29434 -2.118339,2.85614 -1.252792,2.32749 3.076919,7.33358 2.12453,11.0852 1.12803,3.28148 0.992471,7.35724 4.00908,9.43461 -3.54993,-4.51827 -1.14092,2.81488 0.156488,4.69862 6.171361,3.91624 1.398741,-4.99095 -0.316867,-7.47632 -3.451561,-8.22563 1.851689,2.41271 3.296017,4.86319 4.734581,2.13661 -2.06021,-11.49792 -0.355449,-15.88936 1.223129,5.61134 3.906081,11.14708 2.02932,16.91893 3.295869,2.47684 -0.805799,10.56138 -3.668501,6.16034 -5.402239,-6.70728 -4.50541,-15.79819 -7.046939,-23.47595 -0.678511,-2.81652 -2.73183,-8.89619 1.89066,-9.1754 z m 30.26016,0.38499 c 7.76396,-1.55945 14.439381,9.65522 2.786711,9.05186 -7.372041,1.33084 -18.268,-4.88954 -6.396289,-8.54956 -3.438671,13.40846 16.089939,3.86503 6.148887,0.078 -0.846439,-0.19343 -1.692867,-0.38687 -2.539309,-0.5803 z m 20.761542,0.92295 c 5.995088,4.65327 2.001628,18.69308 13.78594,16.46492 10.917337,-3.71033 22.418287,1.43489 20.274687,14.42946 -2.68622,15.44546 6.9574,-8.77018 -0.6239,-12.34374 -5.50788,-2.88299 -5.90552,-3.22415 -0.0375,-4.43773 6.81336,-2.62116 5.55737,-15.18536 6.37063,-3.93044 1.49392,5.3407 -1.0827,10.56444 -0.82673,15.96761 -1.14708,7.25511 -6.81078,19.51059 -11.13364,21.90296 -7.15429,-4.66529 -14.745799,-10.69193 -23.521398,-11.25776 -5.71939,3.5449 -11.736591,-9.43497 -11.95255,-0.10296 4.70122,2.28432 6.887089,-0.42506 0.33537,2.15354 -8.427521,0.65225 -13.98465,16.38589 -19.27571,3.67731 -9.845861,-7.46348 -2.231001,-24.51239 8.466849,-25.0258 13.996971,4.21361 10.498042,-13.49598 18.138251,-17.49746 z m -2.20917,0.86869 c -4.38866,6.06153 -0.36467,15.96675 -4.027662,23.06872 -3.685919,3.10041 -7.848899,14.5212 0.248041,13.87848 -7.415699,1.80483 -1.995821,-15.94784 -0.617051,-8.4287 3.27914,8.77416 -2.61998,-4.91857 3.735211,-3.5716 -3.357581,-5.62043 1.30488,-15.89504 0.34409,-23.26932 0.105789,-0.55919 0.21158,-1.11839 0.317371,-1.67758 z m -4.710322,32.52318 0.919321,-0.35243 z m -10.680488,-33.0792 c 2.581608,0.32776 -0.121801,4.18438 -1.062141,1.5665 -0.194241,-0.69803 0.284448,-1.56938 1.062141,-1.5665 z m -33.710592,0.69815 c 2.66609,0.58189 0.53508,0.11679 0,0 z m 0,0 c -0.434149,0.0762 -2.432169,0.42681 0,0 z m 4.158912,3.54348 c 0.893079,5.45365 0.641429,11.15758 3.495907,16.9143 -3.616737,-3.97447 -7.686738,-15.02074 -3.53645,-16.83844 z m 7.669318,2.37351 c 1.63598,2.93532 2.500701,9.51919 3.6415,9.93916 -4.31324,-0.45893 -4.146658,-6.86963 -3.6415,-9.93916 z m -11.908851,0.13798 c 3.327831,2.21734 1.219232,6.18976 0,0 z m 19.794672,1.45934 c 3.337299,1.66718 -0.276481,2.41311 0,0 z m 16.181949,0.73795 c -3.374678,0.95738 -2.95588,0.55256 0,0 z m 20.009112,5.96919 c 0.216389,3.54886 2.298618,7.21176 1.01854,10.66913 5.72632,6.21853 -6.744071,14.57197 3.318669,10.61587 4.787939,-4.32419 -4.64366,0.27801 -0.973861,-5.07806 -2.563579,-9.18522 2.827051,-6.08013 4.527057,0.44567 -1.533134,8.87286 -8.82853,5.11579 -4.452568,5.58707 9.028952,1.43504 3.394074,-12.65846 -0.801617,-13.7328 -0.722839,-2.23428 -1.913392,-6.27263 -2.636231,-8.50692 z m -28.148151,2.40399 c -4.55446,2.94385 -8.981971,-1.03287 0,0 z m -13.959861,5.15526 c 5.93602,4.92766 -4.701979,9.84136 0.89765,16.60762 -0.364361,5.20857 9.38894,12.81224 7.868181,13.30733 -8.793451,-5.04669 -12.75756,-18.3782 -8.01317,-26.76815 -0.250892,-1.04893 -0.50177,-2.09787 -0.752661,-3.1468 z m 26.132761,10.93008 c -4.75779,3.00445 -4.60825,12.29754 -1.80454,2.87321 1.62655,-0.68989 2.02711,-1.28435 1.80454,-2.87321 z m 11.25048,14.5836 c 8.60696,0.37449 17.766317,3.15897 23.888058,9.31533 -1.75002,2.317 -5.922811,5.14099 -9.055299,6.84595 -10.267109,4.30414 -22.97784,2.50313 -32.132691,-2.68958 -1.863108,-5.69283 6.448391,-6.95948 9.997631,-9.58941 2.4341,-1.29409 4.868201,-2.58819 7.302301,-3.88229 z m 5.386229,4.15737 c -1.827358,1.26294 -11.53283,-0.51659 -5.897139,0.68098 3.51926,1.24076 7.11495,-0.1768 10.716501,-0.20814 -1.606452,-0.15761 -3.212912,-0.31523 -4.819362,-0.47284 z m 4.819362,0.47284 c -0.385241,3.87022 -7.984202,2.96936 -7.535072,1.46662 0.551752,3.19927 -7.218719,2.39977 -8.245858,0.1839 -3.688202,-1.58416 -10.733403,3.7473 -1.889792,2.4128 -5.904809,3.39955 9.008602,-2.45049 9.92188,3.21272 1.66601,-5.00201 18.813269,-5.60415 10.917471,-6.91736 z m -33.283261,1.01492 c 0.182769,0.2302 -0.19091,0.0685 0,0 z m 41.739571,1.78026 c -11.134301,2.3204 -1.388721,10.88229 1.274247,1.15138 l -0.7182,-0.97723 z m -9.067662,1.97094 c 1.63522,-0.15185 2.38696,7.90517 -0.669819,7.07096 4.393041,0.0667 4.740111,-6.13849 0.669819,-7.07096 z m -20.911899,0.60875 c -3.968419,1.1983 -1.634199,6.28614 0,0 z m -14.537111,8.13748 c 3.53604,1.36708 8.504791,2.08867 4.974921,6.6392 -3.911539,4.8784 3.15454,7.69555 2.68818,12.79809 2.120191,2.30474 7.27166,11.74612 9.879391,6.75445 2.53147,-7.52938 3.348069,-1.44396 4.474628,3.21425 0.64974,3.96408 6.73223,0.71844 9.723281,1.5754 13.840798,-0.0241 -7.672699,4.30681 -12.23238,3.57863 -11.022521,-1.64903 -15.69705,-15.43557 -19.130241,-24.73271 -0.109939,-3.27635 -0.233338,-6.55229 -0.37778,-9.82731 z m 61.303239,19.99207 c 0.65093,0.58214 -0.0433,2.93427 0,0 z m 7.78557,6.41511 c -2.4946,12.65073 -4.98919,25.30147 -7.48379,37.9522 -8.49247,4.42632 -17.033497,8.77673 -24.324677,15.08066 -2.913671,3.09903 -6.236062,4.29469 -10.2226,2.39754 -4.07484,-0.92611 -8.149691,-1.85221 -12.224531,-2.77832 6.754289,0.0743 13.5278,-0.12678 19.544229,-3.70834 10.673509,-4.26914 21.035699,-11.16507 25.134419,-22.43888 4.00209,-8.5138 7.02792,-17.45963 9.57695,-26.50486 z m -11.70418,6.75101 c -1.3523,4.58112 -4.90092,8.06186 -7.29052,12.12329 2.5376,-3.97447 5.05361,-7.96947 7.29052,-12.12329 z m -13.646731,22.00485 c -1.891707,3.73757 -6.472727,9.75569 -1.210904,1.91369 z m -45.520708,7.21662 c 6.03001,5.19776 1.31264,4.35998 0,0 z m 33.89611,4.4602 c -6.67049,4.87318 -21.360088,2.07432 -24.05448,1.15867 7.895042,1.69532 16.4788,2.0294 24.05448,-1.15867 z"
       id="path4052"
       inkscape:connector-curvature="0"
       inkscape:export-xdpi="88.910217"
       inkscape:export-ydpi="88.910217"
       sodipodi:nodetypes="cccccccccccccccccccccccccccccccccccccccccccccccccccccccccccccccccccccccccccccccccccccccccccccccccccccccccccccccccccccccccccccccccccccccccccccccccccccccccccccccccccccccccccccccccccccccccccccccccccccccccccccccccccccccccccccccccccccccccccccccccccccccccccccccccccccccccccccccccccccccccccc" />
  </g>
</svg>
